<?xml version="1.0" encoding="UTF-8" standalone="no"?>
<svg
   xmlns:serif="http://www.serif.com/"
   xmlns:dc="http://purl.org/dc/elements/1.1/"
   xmlns:cc="http://creativecommons.org/ns#"
   xmlns:rdf="http://www.w3.org/1999/02/22-rdf-syntax-ns#"
   xmlns:svg="http://www.w3.org/2000/svg"
   xmlns="http://www.w3.org/2000/svg"
   xmlns:sodipodi="http://sodipodi.sourceforge.net/DTD/sodipodi-0.dtd"
   xmlns:inkscape="http://www.inkscape.org/namespaces/inkscape"
   width="100%"
   height="100%"
   viewBox="0 0 1477 1477"
   version="1.1"
   xml:space="preserve"
   style="fill-rule:evenodd;clip-rule:evenodd;stroke-linejoin:round;stroke-miterlimit:2;"
   id="svg4670"
   sodipodi:docname="favicon.svg"
   inkscape:version="0.92.5 (2060ec1f9f, 2020-04-08)"
   inkscape:export-filename="/home/sebastien/Documents/IPSDK/config_Explorer/Macro_Interface/LeAFtool/Images/favicon.png"
   inkscape:export-xdpi="96"
   inkscape:export-ydpi="96"><metadata
   id="metadata4676"><rdf:RDF><cc:Work
       rdf:about=""><dc:format>image/svg+xml</dc:format><dc:type
         rdf:resource="http://purl.org/dc/dcmitype/StillImage" /><dc:title /></cc:Work></rdf:RDF></metadata><defs
   id="defs4674" /><sodipodi:namedview
   pagecolor="#505050"
   bordercolor="#eeeeee"
   borderopacity="1"
   objecttolerance="10"
   gridtolerance="10"
   guidetolerance="10"
   inkscape:pageopacity="0"
   inkscape:pageshadow="2"
   inkscape:window-width="1920"
   inkscape:window-height="949"
   id="namedview4672"
   showgrid="false"
   inkscape:zoom="0.31956668"
   inkscape:cx="1284.5519"
   inkscape:cy="828.65273"
   inkscape:window-x="0"
   inkscape:window-y="27"
   inkscape:window-maximized="1"
   inkscape:current-layer="svg4670" />
    <rect
   style="fill:#f27955;fill-opacity:0.70353985;stroke-width:0.8904767"
   id="rect105"
   width="1602.858"
   height="1602.858"
   x="-65.713974"
   y="-63.455536"
   rx="99.224937"
   ry="99.224937"
   inkscape:export-xdpi="96"
   inkscape:export-ydpi="96"
   inkscape:label="fond" /><path
   d="M1356.89,-34.278C1236.63,-33.771 1134.97,-26.325 1059.16,-9.84C1002.81,2.415 959.553,20.286 930.884,42.517L844.238,101.878C832.717,103.923 815.987,109.217 795.912,118.819C702.419,163.539 494.922,303.653 427.204,386.17C427.205,386.169 334.895,452.379 334.895,452.379C334.67,452.54 334.448,452.703 334.227,452.868C123.073,610.433 24.235,768.208 11.225,922.362C2.494,1025.82 31.902,1128.85 95.342,1231.08C42.284,1305.98 7.98,1360.07 -9.68,1395.23C-21.339,1418.45 -26.578,1436 -27.752,1447.46C-29.492,1464.46 -24.963,1476.75 -19.247,1485.39C-12.694,1495.3 -3.556,1502.36 8.56,1506.03C20.877,1509.76 45.752,1508.9 78.304,1489.95C115.223,1468.47 175.792,1420.96 255.704,1351.38C488.843,1446.25 703.16,1396.13 899.369,1228.61C900.185,1227.91 900.976,1227.19 901.739,1226.43L976.427,1152.54C1119.8,1048.42 1250.88,904.595 1354.8,674.805C1354.8,674.813 1406.41,586.49 1406.41,586.49C1406.98,585.506 1407.52,584.501 1408.02,583.476C1494.11,405.702 1527.25,268.963 1501.32,112.879C1515.75,63.245 1506.3,26.223 1482.58,1.412C1460.47,-21.712 1419.78,-37.177 1356.89,-34.278Z"
   style="fill:white;"
   id="path4647"
   inkscape:label="blanc" />
    <g
   id="Grosse-Feuille"
   serif:id="Grosse Feuille"
   transform="matrix(-1.70469,-2.24539,-2.60868,1.62994,5270.94,-699.03)">
        <g
   transform="matrix(-2.18307,-1.25992,-1.30838,2.0757,3290.96,-977.391)"
   id="g4651"
   inkscape:label="lesions">
            <path
   d="m 436.5,1529.19 c -0.03,1.1 0.756,1.99 1.744,1.98 0.989,0 1.822,-0.9 1.852,-2 0.029,-1.09 -0.756,-1.98 -1.745,-1.98 -0.989,0.01 -1.822,0.91 -1.851,2 z m 26.496,-33.4 c -10.709,6.48 -11.906,8.24 -12.163,17.86 -0.205,7.66 0.145,9.03 2.556,10.03 1.769,0.74 4.325,-0.35 6.971,-2.97 2.354,-2.34 6.271,-4.17 8.973,-4.21 7.855,-0.09 8.68,-2.04 5.63,-13.25 -2.916,-10.72 -4.714,-11.85 -11.967,-7.46 z m -71.767,8.6 c -1.336,5.19 0.817,13.7 3.462,13.69 3.075,-0.01 3.846,-5.9 1.58,-12.05 -2.078,-5.64 -3.862,-6.22 -5.042,-1.64 z m 50.536,-10.03 c -0.057,2.12 -6.795,15.51 -6.213,18.39 0.845,4.18 8.707,2 9.352,-1.01 3.638,-16.97 -2.895,-26.52 -3.139,-17.38 z m -62.752,-21.78 c 4.577,-2.33 3.164,-11.42 6.991,-12.02 11.106,-1.77 19.481,2.87 19.535,10.81 0.04,5.94 -4.769,8.51 -12.558,9.07 z m 104.146,-13.04 c -0.146,5.45 -3.704,7.77 -1.938,9.63 0.526,0.55 2.768,-0.79 4.981,-2.98 3.309,-3.27 3.779,-4.49 2.649,-6.88 -1.728,-3.64 -5.514,-6.44 -5.692,0.23 z m -20.469,-11.22 c -0.323,0.51 -0.719,5.21 -2.648,8.46 -2.837,4.79 -4.797,12.17 -1.119,12.15 1.469,0 9.958,-7.36 10.242,-9.67 0.582,-4.72 5.637,-13.92 5.637,-13.92 -2.909,0.01 -5.553,0.45 -5.877,0.96 z m -8.109,-9.11 c 3.863,1 18.035,-7.11 21.246,-7.51 3.705,-0.46 5.577,-3.77 6.816,-7.37 1.392,-4.05 -5.252,-7.77 -6.643,-9.49 -1.897,-2.34 -3.099,-1.46 -10.378,1.09 -1.42,0.5 -2.6,1.01 -3.586,1.55 z m -20.188,-10.97 c -1.83,-7.13 -5.431,-17.28 -7.285,-19.58 l -0.044,-0.05 c -0.155,-0.18 -0.296,-0.31 -0.424,-0.37 -0.036,-0.02 -0.072,-0.04 -0.106,-0.04 l -0.166,-0.02 h -0.059 c -2.483,0.04 -9.887,7.95 -12.553,13.53 v 0 c -1.41,2.95 -1.659,6.12 -0.582,7.41 0.126,0.15 0.287,0.31 0.48,0.47 0.156,0.12 0.333,0.25 0.529,0.39 l 0.544,0.34 0.441,0.25 0.478,0.25 0.513,0.26 0.694,0.32 c 0.267,0.12 0.543,0.24 0.826,0.36 1.164,0.49 2.466,0.97 3.823,1.42 l 0.694,0.23 0.782,0.24 0.361,0.11 c 0.482,0.15 0.966,0.29 1.448,0.42 2.652,0.74 5.256,1.3 7.228,1.51 z m 57.055,-20.47 c 5.223,-12.23 8.223,2.11 2.975,7.61 -3.29,3.45 -6.123,-4.99 -2.974,-7.61 z m -79.973,-7.21 c -1.922,-0.18 -4.253,0.89 -4.764,2.87 -0.556,2.16 -0.465,3.95 0.179,5.19 0.258,0.5 0.604,0.9 1.033,1.21 l 0.238,0.15 c 0.141,0.08 0.289,0.15 0.445,0.22 0.059,0.02 0.12,0.04 0.182,0.06 0.237,0.08 0.489,0.14 0.757,0.18 l 0.111,0.01 c 0.176,0.02 0.359,0.03 0.549,0.03 2.79,-0.02 4.99,-4.74 3.804,-8.17 -0.073,-0.21 -0.169,-0.4 -0.285,-0.57 l -0.085,-0.12 c -0.094,-0.12 -0.199,-0.23 -0.314,-0.33 l -0.123,-0.1 c -0.214,-0.17 -0.457,-0.3 -0.719,-0.4 l -0.154,-0.06 -0.292,-0.08 -0.262,-0.05 z m 21.948,-27.73 0.373,0.01 c 0.947,0.03 1.857,0.09 2.724,0.19 l 0.868,0.11 0.245,0.03 c 0.715,0.11 1.397,0.23 2.045,0.38 0.356,0.08 0.702,0.16 1.037,0.26 l 0.693,0.2 c 0.13,0.04 0.258,0.08 0.385,0.12 1.565,0.53 2.845,1.2 3.787,1.97 0.076,0.06 0.15,0.12 0.221,0.18 0.144,0.13 0.278,0.26 0.403,0.39 l 0.133,0.15 0.29,0.35 0.076,0.11 c 1.395,1.98 0.868,4.42 -2.214,6.88 -1.19,0.95 -3.226,1.28 -5.251,1.25 -0.567,-0.01 -1.133,-0.04 -1.68,-0.1 l -8.324,-9.72 c 1.889,-1.3 3.906,-2.77 3.906,-2.77 0.095,0 0.189,0.01 0.283,0.01 z m 63.811,3.8 c -0.029,1.1 0.756,1.99 1.745,1.99 0.989,-0.01 1.822,-0.91 1.851,-2.01 0.029,-1.09 -0.756,-1.98 -1.745,-1.98 -0.989,0.01 -1.822,0.91 -1.851,2 z m -31.394,-35.21 -0.098,-0.22 c -0.297,-0.66 -0.625,-1.29 -1.006,-1.81 -0.17,-0.23 -0.349,-0.44 -0.542,-0.62 l -0.072,-0.07 c -0.853,-0.78 -1.945,-1.04 -3.433,-0.31 v 0 c -2.312,1.13 -5.657,5.98 -7.767,10.12 -2.395,4.71 -2.207,7.43 -0.983,9.26 l 0.101,0.15 c 0.06,0.08 0.122,0.16 0.186,0.24 0.124,0.16 0.256,0.31 0.395,0.45 l 0.108,0.11 c 0.097,0.09 0.197,0.19 0.3,0.28 l 0.211,0.18 c 1.188,0.99 2.663,1.7 3.895,2.51 -0.002,0.11 0.099,0.26 0.281,0.42 l 0.138,0.11 z m 25.671,15.36 c -0.174,6.54 3.851,5.94 4.596,-0.68 0.382,-3.39 -0.094,-4.46 -1.978,-4.45 -1.866,0.01 -2.515,1.28 -2.618,5.13 z"
   style="fill:#a64d32;fill-opacity:1"
   id="path4649"
   inkscape:connector-curvature="0" />
        </g>
        <g
   transform="matrix(-2.18307,-1.25992,-1.30838,2.0757,3095.4,-1288.41)"
   id="g4655"
   inkscape:label="bord3">
            <path
   d="m 363.396,1395.37 c 7.71,13.92 15.278,25.93 16.687,65.01 l -37.809,4.51 36.947,10.17 c 2.242,24.96 -4.621,58 -15.856,80.6 l -40.573,-3.93 35.993,18.06 c -7.518,20.16 -17.104,28.98 -24.513,34.18 -11.919,8.38 -27.104,12.97 -42.465,11.75 0.438,-2.98 2.013,-5.63 2.589,-8.89 4.481,-25.42 15.233,-57.5 28.65,-97.62 3.863,1 18.035,-7.11 21.246,-7.51 3.704,-0.46 5.577,-3.77 6.815,-7.37 1.393,-4.05 -5.252,-7.77 -6.643,-9.49 -1.897,-2.34 -3.099,-1.46 -10.378,1.09 -1.42,0.5 -2.6,1.01 -3.586,1.55 6.426,-18.3 13.664,-37.92 21.716,-58.85 10e-4,0 10e-4,-0.01 0.002,-0.01 6.679,-17.45 10.339,-27.44 10.779,-29.93 0.208,-1.18 0.339,-2.29 0.399,-3.32 z m -16.234,-7.78 c -0.208,0.22 -0.415,0.45 -0.623,0.69 -3.288,3.79 -6.904,10.35 -10.733,19.53 -0.5,1.19 -1.001,2.4 -1.502,3.61 -1.032,-2.38 -2.431,-4.36 -5.15,-3.03 h -10e-4 c -2.312,1.13 -5.656,5.98 -7.767,10.12 -4.769,9.38 0.703,10.86 4.213,13.18 -0.003,0.14 0.152,0.34 0.42,0.53 -7.501,19.5 -15.269,41.51 -23.161,66.02 -2.045,-7.96 -6.3,-19.7 -7.86,-20.04 -2.226,-0.5 -10.026,7.75 -12.777,13.51 h -10e-4 c -1.41,2.95 -1.659,6.12 -0.581,7.41 2.009,2.41 13.104,5.96 18.84,6.57 l -0.536,1.7 c -13.54,42.66 -22.129,75.89 -26.469,100.51 -0.203,1.15 -0.22,2.69 -0.407,3.82 -4.377,-6.99 24.536,-99.91 24.536,-99.91 l -32.732,-21.93 c 9.549,-18.16 19.004,-37.11 30.984,-55.72 l 16.948,0.82 -10.5,-16.5 c 4.736,-12.58 39.73,-28.92 44.361,-30.71 0.168,-0.06 0.333,-0.13 0.498,-0.18 z m -42.198,211.6 c -0.029,1.1 0.756,1.99 1.745,1.98 0.989,0 1.822,-0.9 1.851,-2 0.029,-1.09 -0.756,-1.98 -1.745,-1.98 -0.989,0.01 -1.822,0.91 -1.851,2 z m 26.496,-33.4 c -10.709,6.48 -11.906,8.24 -12.163,17.86 -0.204,7.66 0.145,9.03 2.556,10.03 1.769,0.74 4.326,-0.35 6.971,-2.97 2.354,-2.34 6.271,-4.17 8.973,-4.21 7.856,-0.09 8.681,-2.04 5.631,-13.25 -2.917,-10.72 -4.715,-11.85 -11.968,-7.46 z m -21.231,-1.43 c -0.056,2.12 -6.795,15.51 -6.212,18.39 0.845,4.18 8.706,2 9.351,-1.01 3.638,-16.97 -2.895,-26.52 -3.139,-17.38 z m 41.394,-34.82 c -0.146,5.45 -3.703,7.77 -1.938,9.63 0.527,0.55 2.768,-0.79 4.981,-2.98 3.309,-3.27 3.78,-4.49 2.649,-6.88 -1.727,-3.64 -5.514,-6.44 -5.692,0.23 z m -20.469,-11.22 c -0.323,0.51 -0.719,5.21 -2.648,8.46 -2.836,4.79 -4.796,12.17 -1.118,12.15 1.468,0 9.957,-7.36 10.242,-9.67 0.582,-4.72 5.637,-13.92 5.637,-13.92 -2.909,0.01 -5.554,0.45 -5.877,0.96 z m 28.758,-40.55 c 5.224,-12.23 8.224,2.11 2.975,7.61 -3.289,3.45 -6.123,-4.99 -2.974,-7.61 z m -84.737,-4.34 c -1.091,4.24 0.308,7.06 3.494,7.05 2.79,-0.02 4.99,-4.74 3.804,-8.17 -1.001,-2.89 -6.481,-2.05 -7.298,1.12 z m 22.523,-27.84 c 1.889,-1.3 3.907,-2.77 3.907,-2.77 12.089,0.2 18.393,5.72 11.348,11.34 -1.523,1.22 -4.432,1.42 -6.931,1.15 z m 68,1.04 c -0.029,1.1 0.756,1.99 1.745,1.99 0.989,-0.01 1.822,-0.91 1.851,-2.01 0.03,-1.09 -0.756,-1.98 -1.744,-1.98 -0.989,0.01 -1.822,0.91 -1.852,2 z m -5.723,-19.85 c -0.174,6.54 3.851,5.94 4.596,-0.68 0.382,-3.39 -0.094,-4.46 -1.978,-4.45 -1.866,0.01 -2.515,1.28 -2.618,5.13 z"
   style="fill:#c8e588"
   id="path4653"
   inkscape:connector-curvature="0" />
        </g>
        <g
   transform="matrix(-2.18307,-1.25992,-1.30838,2.0757,3095.4,-1288.41)"
   id="g4659"
   inkscape:label="bord2">
            <path
   d="m 347.145,1387.6 c -0.202,0.22 -0.404,0.44 -0.606,0.68 -3.288,3.79 -6.904,10.35 -10.733,19.53 -0.5,1.19 -1.001,2.4 -1.502,3.61 -1.032,-2.38 -2.431,-4.36 -5.15,-3.03 h -10e-4 c -2.312,1.13 -5.656,5.98 -7.767,10.12 -4.769,9.38 0.703,10.86 4.213,13.18 -0.003,0.14 0.152,0.34 0.42,0.53 -7.501,19.5 -15.269,41.51 -23.161,66.02 -2.045,-7.96 -6.3,-19.7 -7.86,-20.04 -2.226,-0.5 -10.026,7.75 -12.777,13.51 h -10e-4 c -1.41,2.95 -1.659,6.12 -0.581,7.41 2.009,2.41 13.104,5.96 18.84,6.57 l -0.536,1.7 c -13.54,42.66 -22.129,75.89 -26.469,100.51 -0.208,1.18 -0.407,2.35 -0.598,3.5 -0.314,-0.15 -0.566,-0.3 -0.731,-0.43 -5.638,-4.55 -12.539,-13.55 -16.591,-20.44 -7.318,-12.46 -9.763,-23.26 -9.763,-23.26 -3.979,-21.68 -2.107,-41.6 12.872,-60.38 l 29.134,5.92 -22.926,-22.93 c 9.549,-18.16 19.004,-37.11 30.984,-55.72 l 16.948,0.82 -10.5,-16.5 c 3.835,-12.75 44.654,-30.63 44.631,-30.79 0.07,-0.03 0.141,-0.06 0.211,-0.09 z m -87.451,186.79 c -1.336,5.19 0.816,13.7 3.461,13.69 3.075,-0.01 3.846,-5.9 1.58,-12.05 -2.077,-5.64 -3.862,-6.22 -5.041,-1.64 z m -12.216,-31.81 c 4.576,-2.33 3.164,-11.42 6.99,-12.02 11.106,-1.77 19.481,2.87 19.535,10.81 0.041,5.94 -4.769,8.51 -12.557,9.07 z m 27.697,-69.15 c -1.091,4.24 0.308,7.06 3.494,7.05 2.79,-0.02 4.99,-4.74 3.804,-8.17 -1.001,-2.89 -6.481,-2.05 -7.298,1.12 z m 22.523,-27.84 c 1.889,-1.3 3.907,-2.77 3.907,-2.77 12.089,0.2 18.393,5.72 11.348,11.34 -1.523,1.22 -4.432,1.42 -6.931,1.15 z"
   style="fill:#799852"
   id="path4657"
   inkscape:connector-curvature="0" />
        </g>
        <g
   transform="matrix(-2.18307,-1.25992,-1.30838,2.0757,3095.4,-1288.41)"
   id="g4663"
   inkscape:label="bord1">
            <path
   d="m 347.143,1387.61 c -0.467,0.16 -0.936,0.32 -1.401,0.49 -0.524,-0.03 -40.783,18.69 -43.439,30.38 l 10.5,16.5 -18.179,-2.31 c -5.86,1.15 -29.418,43.47 -31.128,57.14 l 22.622,21.86 -29.979,-7.51 c -34.832,68.96 4.451,98.4 16.734,107.25 0.192,-1.16 0.392,-2.33 0.601,-3.51 l 0.121,-0.68 c -3.079,-4.34 -7.86,-10.96 -10.87,-19.21 -2.074,-0.71 -3.723,-6.5 -3.398,-11.24 -2.084,-8.7 -3.14,-18.45 -1.943,-28.62 l -9.906,-5.57 c 1.314,-0.84 1.706,-1.44 2.417,-2.64 0.775,-1.31 1.073,-3.58 1.548,-4.73 1.015,-2.45 1.007,-4.33 3.025,-4.65 2.66,-0.43 5.163,-0.48 7.433,-0.21 1.914,-4.78 4.446,-9.57 7.714,-14.3 l 17.163,3.47 2.671,-7.08 -11.7,-12.12 c 6.842,-17.36 14.87,-34 24.642,-49.25 l -4.693,-5.48 c 1.889,-1.3 3.907,-2.77 3.907,-2.77 7.441,0.12 12.69,2.26 13.983,5.2 l 4.48,0.05 c 0.861,-2.35 1.719,-4.66 2.574,-6.95 l -8.07,-15.67 c 1.819,-3.06 4.385,-5.65 7.311,-7.88 2.112,-3.91 5.132,-8.14 7.27,-9.18 h 10e-4 c 2.433,-1.2 3.808,0.26 4.81,2.29 0.264,-0.11 0.527,-0.23 0.789,-0.34 0.352,-0.85 0.703,-1.69 1.053,-2.53 3.829,-9.18 7.445,-15.74 10.733,-19.53 0.201,-0.24 0.402,-0.46 0.604,-0.67 z m -71.968,85.82 c -1.091,4.24 0.308,7.06 3.494,7.05 2.79,-0.02 4.99,-4.74 3.804,-8.17 -1.001,-2.89 -6.481,-2.05 -7.298,1.12 z"
   style="fill:#476540"
   id="path4661"
   inkscape:connector-curvature="0" />
        </g>
    </g>
    <g
   transform="matrix(0.706219,0.378519,-0.604283,0.93671,688.914,172.881)"
   id="g4668">
        <path
   d="m 168.149,1061.37 c -41.83,316.92 38.936,149.08 77.645,48.55 6.299,-16.36 17.98,-44.46 27.234,-71.06 5.552,-15.96 16.84,-68.199 19.328,-81.005 50.59,-260.391 175.549,-658.669 359.752,-1137.541 42.058,-109.905 65.344,-172.708 68.112,-188.409 8.767,-49.719 -4.064,-75.886 -37.21,-75.886 -29.657,0 -64.592,49.719 -103.881,143.923 -72.322,172.708 -149.82,384.667 -229.006,635.879 -86.366,272.146 -141.186,484.105 -168.87,641.112 -5.191,29.437 -9.559,57.577 -13.104,84.437 z"
   style="fill:#f27955;fill-opacity:1;fill-rule:nonzero"
   id="path4666"
   inkscape:connector-curvature="0" />
    </g>
</svg>