<?xml version="1.0" encoding="UTF-8" standalone="no"?>
<svg
   xmlns:serif="http://www.serif.com/"
   xmlns:dc="http://purl.org/dc/elements/1.1/"
   xmlns:cc="http://creativecommons.org/ns#"
   xmlns:rdf="http://www.w3.org/1999/02/22-rdf-syntax-ns#"
   xmlns:svg="http://www.w3.org/2000/svg"
   xmlns="http://www.w3.org/2000/svg"
   xmlns:sodipodi="http://sodipodi.sourceforge.net/DTD/sodipodi-0.dtd"
   xmlns:inkscape="http://www.inkscape.org/namespaces/inkscape"
   width="100%"
   height="100%"
   viewBox="0 0 1920 1080"
   version="1.1"
   xml:space="preserve"
   style="fill-rule:evenodd;clip-rule:evenodd;stroke-linejoin:round;stroke-miterlimit:2;"
   id="svg59"
   sodipodi:docname="LeAFtool-long.svg"
   inkscape:export-filename="/home/sebastien/Documents/IPSDK/config_Explorer/Macro_Interface/LeAFtool/Images/LeAFtool-long.png"
   inkscape:export-xdpi="96"
   inkscape:export-ydpi="96"
   inkscape:version="0.92.5 (2060ec1f9f, 2020-04-08)"><metadata
   id="metadata65"><rdf:RDF><cc:Work
       rdf:about=""><dc:format>image/svg+xml</dc:format><dc:type
         rdf:resource="http://purl.org/dc/dcmitype/StillImage" /><dc:title /></cc:Work></rdf:RDF></metadata><defs
   id="defs63" /><sodipodi:namedview
   pagecolor="#505050"
   bordercolor="#eeeeee"
   borderopacity="1"
   objecttolerance="10"
   gridtolerance="10"
   guidetolerance="10"
   inkscape:pageopacity="0"
   inkscape:pageshadow="2"
   inkscape:window-width="1920"
   inkscape:window-height="976"
   id="namedview61"
   showgrid="false"
   inkscape:zoom="1.2361274"
   inkscape:cx="373.19587"
   inkscape:cy="734.20363"
   inkscape:window-x="1920"
   inkscape:window-y="0"
   inkscape:window-maximized="1"
   inkscape:current-layer="svg59" />
    <g
   id="Grosse-Feuille"
   serif:id="Grosse Feuille"
   transform="matrix(-0.374657,-0.22093,-0.226736,0.396271,579.399,-279.01)">
        <g
   transform="matrix(-2.18307,-1.25992,-1.30838,2.0757,3290.96,-977.391)"
   id="g4"
   style="fill:#c87137"
   inkscape:label="lesion">
            <path
   d="m 436.5,1529.19 c -0.03,1.1 0.756,1.99 1.744,1.98 0.989,0 1.822,-0.9 1.852,-2 0.029,-1.09 -0.756,-1.98 -1.745,-1.98 -0.989,0.01 -1.822,0.91 -1.851,2 z m 26.496,-33.4 c -10.709,6.48 -11.906,8.24 -12.163,17.86 -0.205,7.66 0.145,9.03 2.556,10.03 1.769,0.74 4.325,-0.35 6.971,-2.97 2.354,-2.34 6.271,-4.17 8.973,-4.21 7.855,-0.09 8.68,-2.04 5.63,-13.25 -2.916,-10.72 -4.714,-11.85 -11.967,-7.46 z m -71.767,8.6 c -1.336,5.19 0.817,13.7 3.462,13.69 3.075,-0.01 3.846,-5.9 1.58,-12.05 -2.078,-5.64 -3.862,-6.22 -5.042,-1.64 z m 50.536,-10.03 c -0.057,2.12 -6.795,15.51 -6.213,18.39 0.845,4.18 8.707,2 9.352,-1.01 3.638,-16.97 -2.895,-26.52 -3.139,-17.38 z m -62.752,-21.78 c 4.577,-2.33 3.164,-11.42 6.991,-12.02 11.106,-1.77 19.481,2.87 19.535,10.81 0.04,5.94 -4.769,8.51 -12.558,9.07 z m 104.146,-13.04 c -0.146,5.45 -3.704,7.77 -1.938,9.63 0.526,0.55 2.768,-0.79 4.981,-2.98 3.309,-3.27 3.779,-4.49 2.649,-6.88 -1.728,-3.64 -5.514,-6.44 -5.692,0.23 z m -20.469,-11.22 c -0.323,0.51 -0.719,5.21 -2.648,8.46 -2.837,4.79 -4.797,12.17 -1.119,12.15 1.469,0 9.958,-7.36 10.242,-9.67 0.582,-4.72 5.637,-13.92 5.637,-13.92 -2.909,0.01 -5.553,0.45 -5.877,0.96 z m -8.109,-9.11 c 3.863,1 18.035,-7.11 21.246,-7.51 3.705,-0.46 5.577,-3.77 6.816,-7.37 1.392,-4.05 -5.252,-7.77 -6.643,-9.49 -1.897,-2.34 -3.099,-1.46 -10.378,1.09 -1.42,0.5 -2.6,1.01 -3.586,1.55 z m -20.188,-10.97 c -1.83,-7.13 -5.431,-17.28 -7.285,-19.58 l -0.044,-0.05 c -0.155,-0.18 -0.296,-0.31 -0.424,-0.37 -0.036,-0.02 -0.072,-0.04 -0.106,-0.04 l -0.166,-0.02 h -0.059 c -2.483,0.04 -9.887,7.95 -12.553,13.53 v 0 c -1.41,2.95 -1.659,6.12 -0.582,7.41 0.126,0.15 0.287,0.31 0.48,0.47 0.156,0.12 0.333,0.25 0.529,0.39 l 0.544,0.34 0.441,0.25 0.478,0.25 0.513,0.26 0.694,0.32 c 0.267,0.12 0.543,0.24 0.826,0.36 1.164,0.49 2.466,0.97 3.823,1.42 l 0.694,0.23 0.782,0.24 0.361,0.11 c 0.482,0.15 0.966,0.29 1.448,0.42 2.652,0.74 5.256,1.3 7.228,1.51 z m 57.055,-20.47 c 5.223,-12.23 8.223,2.11 2.975,7.61 -3.29,3.45 -6.123,-4.99 -2.974,-7.61 z m -79.973,-7.21 c -1.922,-0.18 -4.253,0.89 -4.764,2.87 -0.556,2.16 -0.465,3.95 0.179,5.19 0.258,0.5 0.604,0.9 1.033,1.21 l 0.238,0.15 c 0.141,0.08 0.289,0.15 0.445,0.22 0.059,0.02 0.12,0.04 0.182,0.06 0.237,0.08 0.489,0.14 0.757,0.18 l 0.111,0.01 c 0.176,0.02 0.359,0.03 0.549,0.03 2.79,-0.02 4.99,-4.74 3.804,-8.17 -0.073,-0.21 -0.169,-0.4 -0.285,-0.57 l -0.085,-0.12 c -0.094,-0.12 -0.199,-0.23 -0.314,-0.33 l -0.123,-0.1 c -0.214,-0.17 -0.457,-0.3 -0.719,-0.4 l -0.154,-0.06 -0.292,-0.08 -0.262,-0.05 z m 21.948,-27.73 0.373,0.01 c 0.947,0.03 1.857,0.09 2.724,0.19 l 0.868,0.11 0.245,0.03 c 0.715,0.11 1.397,0.23 2.045,0.38 0.356,0.08 0.702,0.16 1.037,0.26 l 0.693,0.2 c 0.13,0.04 0.258,0.08 0.385,0.12 1.565,0.53 2.845,1.2 3.787,1.97 0.076,0.06 0.15,0.12 0.221,0.18 0.144,0.13 0.278,0.26 0.403,0.39 l 0.133,0.15 0.29,0.35 0.076,0.11 c 1.395,1.98 0.868,4.42 -2.214,6.88 -1.19,0.95 -3.226,1.28 -5.251,1.25 -0.567,-0.01 -1.133,-0.04 -1.68,-0.1 l -8.324,-9.72 c 1.889,-1.3 3.906,-2.77 3.906,-2.77 0.095,0 0.189,0.01 0.283,0.01 z m 63.811,3.8 c -0.029,1.1 0.756,1.99 1.745,1.99 0.989,-0.01 1.822,-0.91 1.851,-2.01 0.029,-1.09 -0.756,-1.98 -1.745,-1.98 -0.989,0.01 -1.822,0.91 -1.851,2 z m -31.394,-35.21 -0.098,-0.22 c -0.297,-0.66 -0.625,-1.29 -1.006,-1.81 -0.17,-0.23 -0.349,-0.44 -0.542,-0.62 l -0.072,-0.07 c -0.853,-0.78 -1.945,-1.04 -3.433,-0.31 v 0 c -2.312,1.13 -5.657,5.98 -7.767,10.12 -2.395,4.71 -2.207,7.43 -0.983,9.26 l 0.101,0.15 c 0.06,0.08 0.122,0.16 0.186,0.24 0.124,0.16 0.256,0.31 0.395,0.45 l 0.108,0.11 c 0.097,0.09 0.197,0.19 0.3,0.28 l 0.211,0.18 c 1.188,0.99 2.663,1.7 3.895,2.51 -0.002,0.11 0.099,0.26 0.281,0.42 l 0.138,0.11 z m 25.671,15.36 c -0.174,6.54 3.851,5.94 4.596,-0.68 0.382,-3.39 -0.094,-4.46 -1.978,-4.45 -1.866,0.01 -2.515,1.28 -2.618,5.13 z"
   style="fill:#c87137"
   id="path2"
   inkscape:connector-curvature="0" />
        </g>
        <g
   transform="matrix(-2.18307,-1.25992,-1.30838,2.0757,3095.4,-1288.41)"
   id="g8">
            <path
   d="m 363.396,1395.37 c 7.71,13.92 15.278,25.93 16.687,65.01 l -37.809,4.51 36.947,10.17 c 2.242,24.96 -4.621,58 -15.856,80.6 l -40.573,-3.93 35.993,18.06 c -7.518,20.16 -17.104,28.98 -24.513,34.18 -11.919,8.38 -23.249,12.88 -38.61,11.65 -0.018,-3.34 -0.204,-4.45 0.437,-8.09 4.47,-25.42 13.53,-58.2 26.947,-98.32 3.863,1 18.035,-7.11 21.246,-7.51 3.704,-0.46 5.577,-3.77 6.815,-7.37 1.393,-4.05 -5.252,-7.77 -6.643,-9.49 -1.897,-2.34 -3.099,-1.46 -10.378,1.09 -1.42,0.5 -2.6,1.01 -3.586,1.55 6.426,-18.3 13.664,-37.92 21.716,-58.85 10e-4,0 10e-4,-0.01 0.002,-0.01 6.679,-17.45 10.339,-27.44 10.779,-29.93 0.208,-1.18 0.339,-2.29 0.399,-3.32 z m -16.234,-7.78 c -0.208,0.22 -0.415,0.45 -0.623,0.69 -3.288,3.79 -6.904,10.35 -10.733,19.53 -0.5,1.19 -1.001,2.4 -1.502,3.61 -1.032,-2.38 -2.431,-4.36 -5.15,-3.03 h -10e-4 c -2.312,1.13 -5.656,5.98 -7.767,10.12 -4.769,9.38 0.703,10.86 4.213,13.18 -0.003,0.14 0.152,0.34 0.42,0.53 -7.501,19.5 -15.269,41.51 -23.161,66.02 -2.045,-7.96 -6.3,-19.7 -7.86,-20.04 -2.226,-0.5 -10.026,7.75 -12.777,13.51 h -10e-4 c -1.41,2.95 -1.659,6.12 -0.581,7.41 2.009,2.41 13.104,5.96 18.84,6.57 l -0.536,1.7 c -13.54,42.66 -22.129,75.89 -26.469,100.51 -0.203,1.15 -0.399,2.29 -0.586,3.42 -4.377,-6.99 24.715,-99.51 24.715,-99.51 l -32.732,-21.93 c 9.549,-18.16 19.004,-37.11 30.984,-55.72 l 16.948,0.82 -10.5,-16.5 c 4.736,-12.58 39.73,-28.92 44.361,-30.71 0.168,-0.06 0.333,-0.13 0.498,-0.18 z m -42.198,211.6 c -0.029,1.1 0.756,1.99 1.745,1.98 0.989,0 1.822,-0.9 1.851,-2 0.029,-1.09 -0.756,-1.98 -1.745,-1.98 -0.989,0.01 -1.822,0.91 -1.851,2 z m 26.496,-33.4 c -10.709,6.48 -11.906,8.24 -12.163,17.86 -0.204,7.66 0.145,9.03 2.556,10.03 1.769,0.74 4.326,-0.35 6.971,-2.97 2.354,-2.34 6.271,-4.17 8.973,-4.21 7.856,-0.09 8.681,-2.04 5.631,-13.25 -2.917,-10.72 -4.715,-11.85 -11.968,-7.46 z m -21.231,-1.43 c -0.056,2.12 -6.795,15.51 -6.212,18.39 0.845,4.18 8.706,2 9.351,-1.01 3.638,-16.97 -2.895,-26.52 -3.139,-17.38 z m 41.394,-34.82 c -0.146,5.45 -3.703,7.77 -1.938,9.63 0.527,0.55 2.768,-0.79 4.981,-2.98 3.309,-3.27 3.78,-4.49 2.649,-6.88 -1.727,-3.64 -5.514,-6.44 -5.692,0.23 z m -20.469,-11.22 c -0.323,0.51 -0.719,5.21 -2.648,8.46 -2.836,4.79 -4.796,12.17 -1.118,12.15 1.468,0 9.957,-7.36 10.242,-9.67 0.582,-4.72 5.637,-13.92 5.637,-13.92 -2.909,0.01 -5.554,0.45 -5.877,0.96 z m 28.758,-40.55 c 5.224,-12.23 8.224,2.11 2.975,7.61 -3.289,3.45 -6.123,-4.99 -2.974,-7.61 z m -84.737,-4.34 c -1.091,4.24 0.308,7.06 3.494,7.05 2.79,-0.02 4.99,-4.74 3.804,-8.17 -1.001,-2.89 -6.481,-2.05 -7.298,1.12 z m 22.523,-27.84 c 1.889,-1.3 3.907,-2.77 3.907,-2.77 12.089,0.2 18.393,5.72 11.348,11.34 -1.523,1.22 -4.432,1.42 -6.931,1.15 z m 68,1.04 c -0.029,1.1 0.756,1.99 1.745,1.99 0.989,-0.01 1.822,-0.91 1.851,-2.01 0.03,-1.09 -0.756,-1.98 -1.744,-1.98 -0.989,0.01 -1.822,0.91 -1.852,2 z m -5.723,-19.85 c -0.174,6.54 3.851,5.94 4.596,-0.68 0.382,-3.39 -0.094,-4.46 -1.978,-4.45 -1.866,0.01 -2.515,1.28 -2.618,5.13 z"
   style="fill:#c8e588"
   id="path6"
   inkscape:connector-curvature="0" />
        </g>
        <g
   transform="matrix(-2.18307,-1.25992,-1.30838,2.0757,3095.4,-1288.41)"
   id="g12">
            <path
   d="m 347.145,1387.6 c -0.202,0.22 -0.404,0.44 -0.606,0.68 -3.288,3.79 -6.904,10.35 -10.733,19.53 -0.5,1.19 -1.001,2.4 -1.502,3.61 -1.032,-2.38 -2.431,-4.36 -5.15,-3.03 h -10e-4 c -2.312,1.13 -5.656,5.98 -7.767,10.12 -4.769,9.38 0.703,10.86 4.213,13.18 -0.003,0.14 0.152,0.34 0.42,0.53 -7.501,19.5 -15.269,41.51 -23.161,66.02 -2.045,-7.96 -6.3,-19.7 -7.86,-20.04 -2.226,-0.5 -10.026,7.75 -12.777,13.51 h -10e-4 c -1.41,2.95 -1.659,6.12 -0.581,7.41 2.009,2.41 13.104,5.96 18.84,6.57 l -0.536,1.7 c -13.54,42.66 -22.129,75.89 -26.469,100.51 -0.208,1.18 -0.407,2.35 -0.598,3.5 -0.314,-0.15 -0.566,-0.3 -0.731,-0.43 -5.638,-4.55 -12.539,-13.55 -16.591,-20.44 -7.318,-12.46 -9.763,-23.26 -9.763,-23.26 -3.979,-21.68 -2.107,-41.6 12.872,-60.38 l 29.134,5.92 -22.926,-22.93 c 9.549,-18.16 19.004,-37.11 30.984,-55.72 l 16.948,0.82 -10.5,-16.5 c 3.835,-12.75 44.654,-30.63 44.631,-30.79 0.07,-0.03 0.141,-0.06 0.211,-0.09 z m -87.451,186.79 c -1.336,5.19 0.816,13.7 3.461,13.69 3.075,-0.01 3.846,-5.9 1.58,-12.05 -2.077,-5.64 -3.862,-6.22 -5.041,-1.64 z m -12.216,-31.81 c 4.576,-2.33 3.164,-11.42 6.99,-12.02 11.106,-1.77 19.481,2.87 19.535,10.81 0.041,5.94 -4.769,8.51 -12.557,9.07 z m 27.697,-69.15 c -1.091,4.24 0.308,7.06 3.494,7.05 2.79,-0.02 4.99,-4.74 3.804,-8.17 -1.001,-2.89 -6.481,-2.05 -7.298,1.12 z m 22.523,-27.84 c 1.889,-1.3 3.907,-2.77 3.907,-2.77 12.089,0.2 18.393,5.72 11.348,11.34 -1.523,1.22 -4.432,1.42 -6.931,1.15 z"
   style="fill:#799852"
   id="path10"
   inkscape:connector-curvature="0" />
        </g>
        <g
   transform="matrix(-2.18307,-1.25992,-1.30838,2.0757,3095.4,-1288.41)"
   id="g16">
            <path
   d="m 347.143,1387.61 c -0.467,0.16 -0.936,0.32 -1.401,0.49 -0.524,-0.03 -40.783,18.69 -43.439,30.38 l 10.5,16.5 -18.179,-2.31 c -5.86,1.15 -29.418,43.47 -31.128,57.14 l 22.622,21.86 -28.328,-5.58 c -34.521,50.07 2.8,96.47 15.083,105.32 0.192,-1.16 0.392,-2.33 0.601,-3.51 l 0.121,-0.68 c -3.079,-4.34 -7.86,-10.96 -10.87,-19.21 -2.074,-0.71 -3.723,-6.5 -3.398,-11.24 -2.084,-8.7 -3.14,-18.45 -1.943,-28.62 l -9.906,-5.57 c 1.314,-0.84 1.706,-1.44 2.417,-2.64 0.775,-1.31 1.073,-3.58 1.548,-4.73 1.015,-2.45 1.007,-4.33 3.025,-4.65 2.66,-0.43 5.163,-0.48 7.433,-0.21 1.914,-4.78 4.446,-9.57 7.714,-14.3 l 17.163,3.47 2.671,-7.08 -11.7,-12.12 c 6.842,-17.36 14.87,-34 24.642,-49.25 l -4.693,-5.48 c 1.889,-1.3 3.907,-2.77 3.907,-2.77 7.441,0.12 12.69,2.26 13.983,5.2 l 4.48,0.05 c 0.861,-2.35 1.719,-4.66 2.574,-6.95 l -8.07,-15.67 c 1.819,-3.06 4.385,-5.65 7.311,-7.88 2.112,-3.91 5.132,-8.14 7.27,-9.18 h 10e-4 c 2.433,-1.2 3.808,0.26 4.81,2.29 0.264,-0.11 0.527,-0.23 0.789,-0.34 0.352,-0.85 0.703,-1.69 1.053,-2.53 3.829,-9.18 7.445,-15.74 10.733,-19.53 0.201,-0.24 0.402,-0.46 0.604,-0.67 z m -71.968,85.82 c -1.091,4.24 0.308,7.06 3.494,7.05 2.79,-0.02 4.99,-4.74 3.804,-8.17 -1.001,-2.89 -6.481,-2.05 -7.298,1.12 z"
   style="fill:#476540"
   id="path14"
   inkscape:connector-curvature="0" />
        </g>
    </g>
    <g
   transform="translate(-354.802,-1323.25)"
   id="g27"
   style="fill:#a8504b;fill-opacity:0.9424779"
   inkscape:label="LE">
        <g
   transform="matrix(0.192741,0,0,0.151659,452.409,1454.5)"
   id="g21"
   style="fill:#a8504b;fill-opacity:0.9424779">
            <path
   d="m 606.665,1529.42 c 0,-14.37 -4.242,-26.96 -12.727,-41.33 -8.485,-12.58 -16.97,-19.77 -28.283,-19.77 -7.071,0 -22.626,1.8 -48.081,5.39 -26.868,7.19 -46.666,8.99 -59.393,8.99 -62.222,0 -98.843,-29.8 -127.126,-105.28 62.222,-34.15 107.328,-90.62 149.752,-153.52 46.666,-68.3 70.707,-136.59 70.707,-208.48 0,-46.726 -14.142,-88.061 -39.596,-124.005 -36.768,-46.728 -72.121,-71.889 -107.475,-71.889 -57.979,0 -106.06,46.728 -144.242,138.385 -33.939,80.879 -40.79,118.989 -52.192,205.969 -2.441,18.62 -4.834,70.98 -1.247,129.33 1.552,25.25 10.176,71.97 14.039,87.73 28.353,115.68 146.875,220.37 257.178,220.37 84.848,0 128.686,-25.16 128.686,-71.89 z M 468.08,1024.41 c 0,48.52 -16.97,93.45 -49.495,134.79 -32.525,44.93 -81.884,96.33 -114.679,107.69 -10.335,3.57 -9.415,-51.04 -6.937,-75.34 5.817,-57.03 9.899,-115.02 29.697,-168.94 19.798,-53.916 43.838,-82.671 72.121,-82.671 15.555,0 31.111,8.986 46.666,25.161 14.142,17.972 22.627,37.74 22.627,59.31 z"
   style="fill:#a8504b;fill-opacity:0.9424779;fill-rule:nonzero"
   id="path19"
   inkscape:connector-curvature="0" />
        </g>
        <g
   transform="matrix(0.156239,0,0,0.156239,379.348,1455.73)"
   id="g25"
   style="fill:#a8504b;fill-opacity:0.9424779">
            <path
   d="m 803.078,1307.77 c 5.388,-24.43 -57.157,-51.23 -68.889,-29.04 -13.74,9.76 -47.803,24.05 -62.425,31.87 -87.252,46.66 -187.516,53.62 -251.764,53.62 -75.014,0 -120.53,-28.79 -138.291,-86.36 -19.045,-60.18 -15.006,-162.24 10.833,-308.777 46.141,-261.678 166.304,-646.346 359.566,-1148.769 42.058,-109.905 65.344,-172.708 68.112,-188.409 8.767,-49.719 -4.064,-75.886 -37.21,-75.886 -29.657,0 -64.592,49.719 -103.881,143.923 -72.322,172.708 -149.82,384.667 -229.006,635.879 -82.1,272.065 -133.456,470.397 -168.87,641.112 -66.443,376.817 2.003,540.837 203.882,526.827 127.013,-8.82 255.511,-44.8 370.79,-118.61 23.15,-14.82 37.423,-33.27 47.153,-77.38 z"
   style="fill:#a8504b;fill-opacity:0.9424779;fill-rule:nonzero"
   id="path23"
   inkscape:connector-curvature="0" />
        </g>
    </g>
    <g
   transform="matrix(0.877459,0,0,0.877459,-500.38,-95.9541)"
   id="g53">
        <g
   transform="translate(22.7931)"
   id="g31"
   inkscape:label="A"
   style="fill:#a8504b;fill-opacity:1">
            <path
   d="m 1001.53,527.629 c 0,-1.242 -0.93,-5.281 -2.178,-12.114 -13.356,-60.883 -36.343,-130.153 -68.959,-208.431 -5.902,-13.668 -11.493,-20.812 -17.084,-20.812 -4.349,0 -9.319,7.455 -14.91,22.054 -23.297,57.156 -39.139,104.992 -47.837,143.199 -14.91,1.554 -24.54,2.796 -28.888,3.417 -7.766,1.243 -11.494,4.349 -11.494,9.94 0,6.213 3.107,9.009 9.941,9.009 10.25,-1.243 19.258,-2.796 26.713,-4.039 -1.863,9.63 -3.106,16.774 -3.727,21.123 -1.243,8.076 -2.174,14.289 -2.796,18.948 0,11.183 3.728,17.085 11.804,17.085 4.038,0 7.145,-2.485 9.008,-7.455 -0.621,-4.038 -0.932,-7.766 -0.932,-11.183 0,-8.697 1.554,-22.365 5.281,-40.381 19.88,-1.864 35.101,-3.107 45.973,-3.107 22.365,0 41.624,2.485 58.087,7.145 3.728,14.599 6.834,25.471 8.698,32.926 -0.932,1.864 -1.243,3.417 -1.243,4.66 0,3.106 1.553,8.076 5.281,15.22 3.106,7.145 6.213,10.872 8.698,10.872 6.833,0 10.564,-2.795 10.564,-8.076 z m -37.589,-75.793 c -18.327,-3.417 -35.101,-5.281 -50.632,-5.281 -8.387,0 -22.987,0.932 -43.799,2.796 11.183,-44.73 25.782,-89.15 44.109,-133.88 10.562,21.744 22.055,50.321 34.169,85.733 4.97,15.221 10.562,31.994 16.153,50.632 z"
   style="fill:#a8504b;fill-opacity:1;fill-rule:nonzero"
   id="path29"
   inkscape:connector-curvature="0" />
        </g>
        <g
   transform="translate(34.1896)"
   id="g35"
   inkscape:label="F"
   style="fill:#a8504b;fill-opacity:1">
            <path
   d="m 1173.92,307.705 c 0,-7.144 -6.83,-10.872 -20.19,-10.872 -1.24,0 -13.66,0.621 -37.58,1.864 -24.54,1.553 -37.28,2.174 -38.21,2.174 -4.35,-0.932 -6.52,-1.553 -6.52,-1.553 -3.11,0.621 -5.9,1.864 -8.08,3.728 -7.14,0.621 -12.42,1.553 -15.53,2.795 -4.97,1.864 -7.14,5.281 -7.14,9.63 0,4.97 5.59,8.076 16.77,9.318 -13.98,53.118 -22.06,101.886 -23.92,145.995 -4.04,2.796 -6.21,5.281 -6.52,7.455 0.62,24.851 4.04,43.178 10.25,56.224 1.24,3.106 3.73,4.97 7.14,4.97 5.6,-1.243 8.7,-4.038 9.63,-8.698 -2.17,-26.714 -3.1,-44.109 -3.1,-51.874 0,-10.872 1.24,-27.646 4.03,-50.011 31.69,0 62.13,-4.97 91.33,-14.91 8.39,-2.796 12.74,-7.145 13.05,-12.736 -0.63,-5.591 -3.11,-8.698 -8.08,-9.319 l -8.39,2.485 c -26.09,8.698 -54.36,13.668 -85.42,15.221 4.97,-31.063 11.8,-60.573 20.5,-88.218 22.37,-1.864 49.39,-3.417 81.08,-4.349 2.48,0.621 4.65,0.932 6.83,0.932 4.35,-1.243 6.83,-4.66 8.07,-10.251 z"
   style="fill:#a8504b;fill-opacity:1;fill-rule:nonzero"
   id="path33"
   inkscape:connector-curvature="0" />
        </g>
        <g
   transform="translate(55.5757,3.4169)"
   id="g39"
   inkscape:label="T"
   style="fill:#81b872;fill-opacity:1">
            <path
   d="m 1296,406.795 c 0,-8.697 -7.76,-13.357 -23.3,-13.357 -2.48,0 -7.14,0 -14.59,-0.31 h -12.74 c 2.79,-13.357 6.83,-29.51 11.8,-48.769 2.49,-10.872 4.66,-18.638 6.53,-22.986 1.24,-2.796 1.86,-4.97 1.86,-6.524 0,-7.144 -3.42,-10.872 -10.25,-10.872 -3.73,0 -6.52,2.796 -8.08,8.077 -9.94,36.033 -17.08,63.057 -21.12,81.384 -13.05,0 -19.57,3.417 -19.57,9.94 0,7.455 4.97,10.872 14.91,10.872 l -9.94,50.322 c -4.04,20.501 -5.9,35.411 -5.9,45.041 0,14.91 3.73,22.676 11.8,22.676 2.18,0 4.35,-1.243 6.84,-3.107 2.17,-1.864 3.41,-4.038 3.41,-6.523 0,-4.038 -1.55,-6.834 -4.34,-9.319 0,-14.599 2.17,-31.373 5.9,-50.321 0,-1.553 3.72,-18.017 10.87,-49.39 1.86,0 8.07,0.311 18.33,0.311 9.94,0.31 16.15,0.31 19.25,0.31 1.87,2.485 4.35,3.728 7.15,4.349 h 4.35 c 4.35,-4.349 6.83,-8.076 6.83,-11.804 z"
   style="fill:#81b872;fill-opacity:1;fill-rule:nonzero"
   id="path37"
   inkscape:connector-curvature="0" />
        </g>
        <g
   transform="translate(55.5757,3.4169)"
   id="g43"
   inkscape:label="O"
   style="fill:#81b872;fill-opacity:1">
            <path
   d="m 1405.96,447.487 c 0,-11.493 -3.41,-22.365 -9.94,-32.305 -6.83,-9.94 -15.53,-16.774 -26.09,-20.812 -3.73,-1.242 -6.21,-1.864 -6.83,-1.864 -1.56,0 -3.11,0.311 -4.35,0.622 -2.49,3.106 -6.52,5.901 -12.12,8.697 -10.56,5.591 -18.94,14.91 -25.47,28.267 -6.21,12.425 -9.32,25.161 -9.32,37.897 0,13.978 3.73,26.092 11.5,36.343 8.07,11.804 18.63,17.395 31.68,17.395 8.08,0 16.15,-3.727 24.85,-10.561 8.7,-6.834 14.29,-14.289 17.4,-22.676 1.86,-4.97 3.1,-8.697 4.03,-11.182 3.11,-7.766 4.66,-17.706 4.66,-29.821 z m -18.01,4.66 c 0,10.25 -3.42,20.812 -10.25,31.684 -7.46,11.804 -14.91,17.705 -22.99,17.705 -7.45,0 -13.36,-3.106 -18.02,-9.94 -4.66,-6.212 -6.83,-13.978 -6.83,-23.607 0,-12.115 2.49,-22.987 7.77,-32.306 6.21,-10.561 14.6,-16.152 25.47,-16.773 3.1,1.863 7.45,3.106 12.42,3.106 8.08,5.591 12.43,15.531 12.43,30.131 z"
   style="fill:#81b872;fill-opacity:1;fill-rule:nonzero"
   id="path41"
   inkscape:connector-curvature="0" />
        </g>
        <g
   transform="translate(55.5757,3.4169)"
   id="g47"
   inkscape:label="O"
   style="fill:#81b872;fill-opacity:1">
            <path
   d="m 1531.77,447.487 c 0,-11.493 -3.42,-22.365 -9.94,-32.305 -6.84,-9.94 -15.53,-16.774 -26.09,-20.812 -3.73,-1.242 -6.22,-1.864 -6.84,-1.864 -1.55,0 -3.1,0.311 -4.35,0.622 -2.48,3.106 -6.52,5.901 -12.11,8.697 -10.56,5.591 -18.95,14.91 -25.47,28.267 -6.22,12.425 -9.32,25.161 -9.32,37.897 0,13.978 3.73,26.092 11.49,36.343 8.08,11.804 18.64,17.395 31.69,17.395 8.07,0 16.15,-3.727 24.84,-10.561 8.7,-6.834 14.29,-14.289 17.4,-22.676 1.86,-4.97 3.11,-8.697 4.04,-11.182 3.11,-7.766 4.66,-17.706 4.66,-29.821 z m -18.02,4.66 c 0,10.25 -3.42,20.812 -10.25,31.684 -7.45,11.804 -14.91,17.705 -22.99,17.705 -7.45,0 -13.35,-3.106 -18.01,-9.94 -4.66,-6.212 -6.84,-13.978 -6.84,-23.607 0,-12.115 2.49,-22.987 7.77,-32.306 6.21,-10.561 14.6,-16.152 25.47,-16.773 3.11,1.863 7.46,3.106 12.43,3.106 8.07,5.591 12.42,15.531 12.42,30.131 z"
   style="fill:#81b872;fill-opacity:1;fill-rule:nonzero"
   id="path45"
   inkscape:connector-curvature="0" />
        </g>
        <g
   transform="translate(55.5757,3.4169)"
   id="g51"
   inkscape:label="L"
   style="fill:#81b872;fill-opacity:1">
            <path
   d="m 1618.74,303.667 c 0,-3.728 -2.48,-8.076 -7.14,-12.425 -4.97,-4.349 -8.7,-6.523 -11.8,-6.523 -2.49,0 -4.04,2.174 -5.29,6.212 -13.66,45.662 -20.19,88.218 -20.19,127.668 0,20.191 0.31,36.654 1.56,49.079 -1.87,3.106 -2.8,6.834 -2.8,11.493 0,1.243 0,4.66 0.31,10.562 0,6.212 0.31,9.629 0.31,10.872 0,4.659 1.87,10.25 6.21,16.773 4.35,6.834 8.7,10.562 13.05,10.562 3.11,0 4.66,-1.553 4.66,-4.66 -3.11,-24.85 -4.35,-56.534 -4.35,-94.741 0,-15.842 1.24,-35.411 4.35,-58.398 2.49,-21.433 5.59,-38.828 9.01,-52.185 l 2.17,-1.864 c 6.53,-3.106 9.94,-7.455 9.94,-12.425 z"
   style="fill:#81b872;fill-opacity:1;fill-rule:nonzero"
   id="path49"
   inkscape:connector-curvature="0" />
        </g>
    </g>
    <g
   transform="matrix(0.877459,0,0,0.789713,404.61,-47.4732)"
   id="g57"
   inkscape:label="nom"
   style="fill:#999999">
        <text
   x="800.862px"
   y="516.136px"
   style="font-family:'HanziPenSC-W3', 'HanziPen SC', cursive;font-size:94.971px;fill:#999999"
   id="text55">Lesion Area Finding tool</text>


    </g>
</svg>